<svg width="260" height="60" viewBox="0 0 260 60" fill="none" xmlns="http://www.w3.org/2000/svg">
<g clip-path="url(#clip0_2_2)">
<path d="M354.101 37.2246C355.056 37.665 356.008 37.951 357.244 37.8932C358.701 37.8318 359.442 38.7504 358.828 39.6435C358.784 39.721 358.747 39.7875 358.672 39.8564C358.094 40.427 357.533 41.002 356.996 41.5327C354.968 41.6039 355.922 40.0752 354.566 39.6017C353.456 39.8222 352.221 39.5864 351.017 39.1032C350.375 38.8508 349.523 38.8734 348.759 38.8049C346.65 38.5984 346.106 38.2064 345.623 36.4762C344.778 36.5517 343.88 36.7533 343.065 36.6454C342.352 36.5523 341.756 36.0568 341.029 35.8579C338.406 35.14 335.762 34.4928 333.121 33.8081C332.593 33.6765 332.006 33.6181 331.538 33.4132C328.859 32.2453 325.782 31.5565 323.568 29.9532C321.783 30.0142 320.145 29.911 318.646 29.2706C317.985 28.9874 317.252 28.7355 316.509 28.5962C313.743 28.069 311.267 27.0589 308.92 26.0458C305.606 24.6144 302.086 23.6764 298.419 22.9027C297.879 22.7932 297.36 22.6129 296.808 22.5256C295.724 22.3441 295.106 21.7914 294.515 21.0927C292.69 21.3858 290.944 21.0227 289.338 20.4424C287.349 19.7319 285.11 19.2724 283.573 18.0206C283.3 17.7926 282.867 17.6229 282.456 17.5104C280.365 16.9507 278.229 16.4684 276.147 15.86C275.126 15.5678 274.108 15.174 273.31 14.6488C271.442 13.4343 269.155 13.0257 266.786 13.0547C265.019 13.0825 263.677 12.7149 262.517 11.9246C261.757 11.3969 260.945 11.0594 259.881 10.9728C258.48 10.8704 257.209 10.4715 256.275 9.76823C255.264 9.00578 253.944 8.75946 252.64 8.6455C250.124 8.41707 247.874 7.68599 245.592 7.01029C244.809 6.78298 244.187 6.26776 243.504 5.86327C242.383 5.19858 241.357 4.43181 239.649 4.80804C239.375 4.87363 238.907 4.79683 238.692 4.66119C237.192 3.76467 235.235 3.61253 233.475 3.20757C231.763 2.81559 230.46 2.21598 229.447 1.06942C227.044 1.86907 225.123 0.844697 223.113 0.204968C221.802 -0.218001 220.659 -0.939956 219.014 -0.610441C218.746 -0.555926 218.313 -0.661628 218.054 -0.783767C215.162 -2.12488 211.697 -2.38319 208.572 -3.27703C208.057 -3.43082 207.519 -3.57785 206.967 -3.6652C205.723 -3.85235 205.508 -4.53768 205.351 -5.42423C204.809 -5.30412 204.318 -5.14457 203.832 -5.12413C203.309 -5.10127 202.731 -5.14432 202.257 -5.27406C201.647 -5.4538 201.127 -5.89013 200.515 -5.96831C197.607 -6.3424 194.902 -7.10839 192.163 -7.84549C190.166 -8.37933 188.104 -8.70089 186.219 -9.49807C185.011 -10.0077 183.458 -10.1004 182.062 -10.4059C180.988 -10.6359 179.83 -10.7485 178.903 -11.1428C174.605 -12.9328 169.751 -13.8013 165.298 -15.3145C164.899 -15.4491 164.42 -15.4397 163.975 -15.5233C160.924 -16.0643 157.883 -16.59 154.851 -17.1642C154.358 -17.2608 153.732 -17.5088 153.535 -17.8057C153.102 -18.4611 152.381 -18.7351 151.487 -18.9287C149.99 -19.2491 148.499 -19.5805 147.002 -19.9008C144.908 -19.0676 143.759 -20.3922 142.226 -20.8758C140.994 -21.2771 139.717 -21.6009 138.298 -21.478C135.687 -21.2467 133.708 -21.9418 132.145 -23.4053C131.028 -24.4652 129.461 -24.8558 127.647 -24.2913C126.957 -24.071 126.351 -24.0963 125.679 -24.2293C123.834 -24.5808 121.977 -24.9101 120.127 -25.2505C119.697 -25.3297 119.261 -25.4619 118.816 -25.4814C115.708 -25.6292 112.914 -26.4962 110.001 -27.1529C107.961 -27.6092 105.892 -27.9837 103.823 -28.3582C102.848 -28.5358 101.91 -28.6519 100.971 -29.024C99.6302 -29.5572 98.2234 -30.0701 96.517 -29.9875C95.7884 -29.9568 94.8345 -30.1412 94.3342 -30.4827C92.548 -31.7132 90.2298 -31.5807 88.0547 -31.8309C86.6151 -31.9949 85.1101 -32.0106 83.7455 -32.3074C82.3651 -32.6085 81.1218 -33.2173 79.5392 -32.9986C79.2776 -32.9551 78.8382 -33.1138 78.6732 -33.274C78.1181 -33.8094 77.3517 -33.7764 76.5503 -33.7784C75.771 -33.7872 74.9722 -33.8908 74.1896 -33.926C72.4097 -34.0041 70.8493 -34.3418 69.8744 -35.4908C69.4266 -36.0224 68.7222 -36.1641 67.9014 -36.261C67.1437 -36.3405 66.3979 -36.5702 65.7024 -36.8246C64.558 -37.2529 64.2714 -37.7149 64.56 -38.5819C64.8299 -39.4157 65.1692 -40.2433 65.5082 -41.1348C65.9495 -41.2058 66.4217 -41.3961 66.8038 -41.3299C68.9547 -40.9073 71.3192 -41.2189 73.3366 -40.3982C73.4251 -40.3612 73.5611 -40.3112 73.6526 -40.3117C75.7529 -40.4782 77.5145 -39.6892 79.4343 -39.4066C81.5878 -39.0855 83.5186 -38.5314 85.5393 -37.6843C86.6019 -37.7897 87.8159 -37.9048 89.0741 -38.0334C89.6835 -37.368 90.1794 -36.6953 91.5521 -36.6392C92.5177 -36.605 93.4421 -36.0451 94.4139 -36.022C95.4395 -35.9969 96.3613 -35.8852 97.3526 -35.7673C98.8017 -35.5879 99.8422 -35.1369 100.811 -34.4625C101.046 -34.2961 101.384 -34.2164 101.89 -34.0139C102.128 -34.2427 102.297 -34.5417 102.609 -34.6737C102.942 -34.8125 103.443 -34.8926 103.81 -34.8307C104.223 -34.7558 104.603 -34.524 104.914 -34.2984C107.039 -32.7961 109.732 -32.4296 112.613 -32.4594C113.998 -33.0391 115.451 -32.5772 117.035 -32.6679C117.279 -32.3581 117.543 -32.0174 117.931 -31.5406C118.518 -31.4821 119.26 -31.4069 120.289 -31.2914C120.06 -31.5969 119.968 -31.7244 119.802 -31.9486C120.26 -31.9512 120.765 -31.9409 121.257 -31.9724C121.809 -32.0131 122.36 -32.1178 122.928 -32.1542C124.571 -32.2541 125.443 -32.5394 126.887 -33.4484C128.308 -34.3506 129.95 -34.5145 131.579 -33.877C132.492 -33.5246 133.302 -33.2136 134.397 -33.2463C135.583 -33.2796 136.529 -32.7905 137.374 -32.2523C138.194 -31.7338 139.186 -31.4878 140.191 -31.8137C141.627 -32.2899 142.831 -31.9347 144.092 -31.5512C145.416 -31.1504 146.655 -30.6321 148.285 -30.8379C148.916 -30.921 149.779 -30.544 150.374 -30.2406C151.336 -29.7472 152.305 -29.6225 153.501 -29.5763C155.287 -29.5093 157.047 -29.1683 158.793 -28.8693C161.427 -28.4296 163.892 -27.6269 166.622 -27.3909C167.702 -27.2999 168.714 -26.8311 169.732 -26.5014C171.356 -25.9544 172.927 -25.4092 174.83 -25.323C176.127 -25.262 177.395 -24.7615 178.678 -24.4487C180.589 -23.9895 182.476 -23.4859 184.862 -23.8682C184.292 -24.216 183.955 -24.5893 183.529 -24.6421C180.748 -24.9816 178.381 -26.1535 175.503 -26.3534C172.694 -26.547 170.143 -27.4883 167.545 -28.2505C166.309 -28.6143 165.07 -29.0686 163.76 -29.2355C160.388 -29.6599 157.241 -30.483 154.088 -31.359C151.787 -32.0015 149.34 -32.3517 147.002 -32.9278C144.349 -33.5903 141.723 -34.3347 139.131 -35.1079C138.442 -35.3093 137.894 -35.7278 137.062 -36.1601C137.6 -36.4348 137.892 -36.6616 138.255 -36.7542C139.351 -37.0165 140.468 -36.992 141.589 -36.749C143.725 -36.2667 145.901 -35.8244 148.055 -35.3754C149.246 -35.1261 150.421 -34.8171 151.649 -34.6983C154.506 -34.4277 157.107 -33.7031 159.635 -32.8191C160.856 -32.3956 162.125 -32.1887 163.479 -32.0353C166.128 -31.7193 168.766 -31.1891 171.305 -30.5834C174.717 -29.7772 178.123 -28.9601 181.585 -28.2425C184.813 -27.5634 187.879 -26.5324 190.998 -25.6275C192.455 -25.2031 193.83 -24.6348 195.468 -24.5956C195.682 -24.588 195.885 -24.4943 196.1 -24.4226C196.836 -24.2083 197.632 -24.0672 198.252 -23.744C198.8 -23.4535 199.127 -22.9675 199.628 -22.498C200.258 -22.7731 200.799 -23.0212 201.394 -23.2675C202.871 -22.0706 204.767 -21.5516 206.994 -21.6196C207.328 -21.6303 207.697 -21.6699 207.981 -21.5921C210.594 -20.8896 213.201 -20.176 215.934 -19.4278C215.932 -18.2269 215.375 -17.3694 213.645 -16.8584C212.137 -16.4148 210.766 -16.1509 209.095 -16.5188C207.503 -16.8651 205.78 -16.9149 204.126 -17.0864C203.686 -16.6954 203.974 -16.463 204.436 -16.3752C205.194 -16.2316 205.98 -16.1059 206.775 -16.0928C210.003 -16.0273 212.099 -14.6353 214.061 -13.1012C214.628 -12.6519 214.499 -12.0353 213.775 -11.6581C212.709 -11.0934 211.592 -10.5683 210.525 -10.0037C210.296 -9.88754 210.196 -9.64635 209.942 -9.35791C212.644 -8.61839 215.257 -7.91588 217.835 -7.18448C218.451 -7.01582 218.977 -6.71859 219.568 -6.50564C219.944 -6.3643 220.378 -6.13056 220.74 -6.15913C222.815 -6.3454 224.466 -5.58663 226.123 -4.96695C228.82 -3.96028 231.538 -3.02437 234.604 -2.67104C235.238 -2.59961 235.839 -2.30724 236.455 -2.13858C238.13 -1.68016 239.805 -1.22174 241.486 -0.774398C242.228 -0.571136 243.005 -0.460788 243.729 -0.224306C247.616 1.03163 251.473 2.34293 255.385 3.55457C256.693 3.95107 257.734 4.46609 258.266 5.36595C259.022 5.18943 259.653 5.04233 260.462 4.86771C260.776 5.1838 261.119 5.48208 261.357 5.80302C261.866 6.51757 262.696 6.56581 263.661 6.40796L263.629 6.39932C264.297 6.73546 265.041 6.77313 265.859 6.77949C266.843 6.78048 267.963 6.83146 268.798 7.16224C273.215 8.8699 277.898 10.267 281.864 12.5159C282.373 12.8088 282.877 13.1128 283.545 13.5129C283.938 13.365 284.404 13.1857 284.952 12.9905C285.662 13.5427 286.284 14.186 287.119 14.6448C287.964 15.119 289.017 15.4198 290.123 15.8506C290.929 14.4221 288.319 14.7814 288.405 13.8847C288.785 13.5028 289.222 13.763 289.601 13.8668C291.674 14.4598 293.769 15.046 295.786 15.7387C296.43 15.9536 296.951 16.4539 297.313 16.911C297.538 17.1901 297.326 17.6306 297.307 18.2135C298.354 18.5895 299.328 19.5464 301.112 19.2293C301.577 18.3723 300.085 18.3345 299.883 17.7551C300.068 17.7165 300.304 17.5893 300.425 17.635C301.61 18.0874 302.749 18.5908 303.947 19.021C304.819 19.3494 305.767 19.6089 306.855 19.9448C307.536 20.5149 307.505 21.7336 309.276 21.8604C309.583 21.5738 309.891 21.2873 310.355 20.852C312.87 21.9877 315.368 23.1191 317.908 24.2746C318.253 23.9216 318.545 23.6308 318.849 23.3178C319.883 24.2015 320.151 24.275 321.977 24.6597C322.941 24.8595 323.816 25.2143 324.673 25.4744C325.213 27.3609 325.213 27.3609 328.819 27.3381C330.072 27.8983 330.65 29.1047 332.39 29.4149C332.486 29.0832 332.575 28.7625 332.736 28.2186C333.392 28.7689 333.871 29.1812 334.372 29.5867C335.316 30.3694 336.22 31.1921 337.986 30.9723C338.355 30.9326 338.905 31.1215 339.174 31.3231C340.21 32.1053 341.292 32.6443 342.945 32.6238C343.661 32.6153 344.502 32.935 345.078 33.2717C346.939 34.3693 349.176 34.8664 351.378 35.4565C352.617 35.7827 353.943 36.082 354.133 37.2332C354.127 37.3724 354.122 37.5115 354.1 37.6463C354.068 37.5096 354.074 37.3704 354.101 37.2246ZM205.595 -10.3176C205.153 -10.5027 204.836 -10.6532 204.495 -10.7595C204.448 -10.7724 204.156 -10.4816 204.172 -10.4772C204.397 -10.3262 204.621 -10.1752 204.893 -10.0752C204.982 -10.0382 205.202 -10.1696 205.595 -10.3176ZM293.464 17.0081C293.442 16.8868 293.403 16.7612 293.387 16.6289C293.213 16.7093 292.968 16.7571 292.883 16.8746C292.817 16.9588 292.944 17.1215 292.989 17.236C293.14 17.1623 293.298 17.0775 293.464 17.0081ZM315.062 24.1474C314.941 24.0377 314.815 23.9391 314.694 23.8294C314.559 23.9075 314.424 23.9855 314.32 24.0722C314.314 24.0833 314.447 24.2348 314.501 24.2367C314.706 24.2289 314.882 24.1749 315.062 24.1474ZM187.847 -16.2626C187.746 -16.2774 187.573 -16.325 187.566 -16.3139C187.504 -16.2032 187.457 -16.0881 187.404 -15.962C187.505 -15.9471 187.679 -15.8996 187.685 -15.9106C187.77 -16.0281 187.801 -16.1475 187.847 -16.2626ZM199.398 -12.7171L199.53 -12.8856L199.284 -12.9019L199.398 -12.7171ZM190.969 -13.1324C191.061 -13.133 191.215 -13.1162 191.272 -13.1518C191.329 -13.1875 191.293 -13.2866 191.299 -13.3617C191.148 -13.352 190.99 -13.3312 190.839 -13.3215C190.871 -13.2489 190.931 -13.194 190.969 -13.1324ZM290.885 18.9611C290.84 18.9106 290.793 18.8336 290.73 18.8163C290.666 18.799 290.556 18.8328 290.474 18.8487C290.519 18.8992 290.566 18.9762 290.63 18.9935C290.693 19.0108 290.787 18.9727 290.885 18.9611ZM192.911 -14.6337L193.084 -14.7141L192.922 -14.7838L192.911 -14.6337ZM181.028 -17.7203L181.193 -17.5601L181.312 -17.7064L181.028 -17.7203ZM290.037 16.8114L290.286 16.7901L290.124 16.6564L290.037 16.8114ZM329.378 30.8405L329.361 30.6441L329.157 30.78L329.378 30.8405ZM226.974 0.571402L227.217 0.561187L227.049 0.438524L226.974 0.571402Z" fill="#D2013C"/>
<path d="M370.745 44.836C369.869 45.5806 369.352 45.7844 368.625 45.3934C366.539 44.2729 363.788 43.6219 362.981 41.5603C362.927 41.4303 362.665 41.3457 362.506 41.2385C362.314 41.2881 361.98 41.2989 361.93 41.3875C361.316 42.7663 361.127 42.8424 359.58 42.125C359.305 41.9985 359.127 41.7964 358.848 41.5795C359.035 40.5696 359.301 39.5813 360.568 38.7263C362.025 39.2787 363.451 39.8224 364.997 40.4118C365.014 40.6722 365.023 41.0452 365.051 41.5771C365.732 41.5335 366.36 41.4879 367.117 41.4394C367.584 42.0659 367.995 42.7921 368.636 43.4021C369.226 43.9727 370.058 44.4051 370.777 44.9087L370.745 44.836Z" fill="#D2013C"/>
<path d="M370.777 44.9087C371.005 43.9868 371.803 43.4127 373.147 42.809C373.48 43.6415 373.72 44.2826 373.976 44.9279C374.979 45.3813 376.742 44.7774 376.844 46.0837C376.384 46.1239 375.781 46.1891 374.946 46.28C376.206 47.0212 378.467 47.9597 379.069 47.9584C379.375 47.9655 379.668 47.8027 379.98 47.7347C381.039 47.5388 381.706 47.8109 381.921 48.4962C382.04 48.8995 381.538 49.3373 380.988 49.2764C380.439 49.2155 379.88 49.1393 379.368 49.0119C378.629 48.8352 377.918 48.5765 377.191 48.3776C373.69 47.4704 373.279 47.166 372.251 44.5581C371.75 44.6382 371.249 44.7183 370.742 44.8095C370.745 44.836 370.777 44.9087 370.777 44.9087Z" fill="#D2013C"/>
<path d="M385.168 50.3695C383.936 50.0962 383.936 50.0962 384.009 49.0295C384.221 49.0106 384.485 48.9296 384.599 48.9864C385.276 49.3379 385.405 49.8206 385.168 50.3695Z" fill="#D2013C"/>
<path d="M369.55 42.6551C369.616 42.6989 369.73 42.7557 369.727 42.7932C369.718 42.8418 369.605 42.9131 369.545 42.9223C369.475 42.9161 369.428 42.8391 369.361 42.7953C369.408 42.7442 369.471 42.6975 369.55 42.6551Z" fill="#D2013C"/>
<path d="M178.101 115.225C179.056 115.665 180.008 115.951 181.244 115.893C182.701 115.832 183.442 116.75 182.828 117.644C182.784 117.721 182.747 117.787 182.672 117.856C182.094 118.427 181.533 119.002 180.996 119.533C178.968 119.604 179.922 118.075 178.566 117.602C177.456 117.822 176.221 117.586 175.017 117.103C174.375 116.851 173.523 116.873 172.759 116.805C170.65 116.598 170.106 116.206 169.623 114.476C168.778 114.552 167.88 114.753 167.065 114.645C166.352 114.552 165.756 114.057 165.029 113.858C162.406 113.14 159.762 112.493 157.121 111.808C156.593 111.677 156.006 111.618 155.538 111.413C152.859 110.245 149.782 109.556 147.568 107.953C145.783 108.014 144.145 107.911 142.646 107.271C141.985 106.987 141.252 106.735 140.509 106.596C137.743 106.069 135.267 105.059 132.92 104.046C129.606 102.614 126.086 101.676 122.419 100.903C121.879 100.793 121.36 100.613 120.808 100.526C119.724 100.344 119.106 99.7914 118.515 99.0927C116.69 99.3858 114.944 99.0227 113.338 98.4424C111.349 97.7319 109.11 97.2724 107.573 96.0206C107.3 95.7926 106.867 95.6229 106.456 95.5104C104.365 94.9507 102.229 94.4684 100.147 93.86C99.126 93.5678 98.1079 93.174 97.31 92.6488C95.4418 91.4343 93.1553 91.0257 90.7861 91.0547C89.0195 91.0825 87.6766 90.7149 86.5175 89.9246C85.7574 89.3969 84.9447 89.0594 83.881 88.9728C82.4796 88.8704 81.2091 88.4715 80.2745 87.7682C79.2639 87.0058 77.9437 86.7595 76.6401 86.6455C74.1243 86.4171 71.8739 85.686 69.5923 85.0103C68.8086 84.783 68.1874 84.2678 67.5036 83.8633C66.3831 83.1986 65.3567 82.4318 63.6488 82.808C63.3746 82.8736 62.9072 82.7968 62.692 82.6612C61.1915 81.7647 59.2346 81.6125 57.4751 81.2076C55.7629 80.8156 54.4597 80.216 53.447 79.0694C51.0441 79.8691 49.1234 78.8447 47.1133 78.205C45.8016 77.782 44.6587 77.06 43.0136 77.3896C42.7457 77.4441 42.3129 77.3384 42.0535 77.2162C39.1625 75.8751 35.6969 75.6168 32.5717 74.723C32.0566 74.5692 31.5194 74.4221 30.9668 74.3348C29.7227 74.1477 29.5075 73.4623 29.3512 72.5758C28.8092 72.6959 28.3179 72.8554 27.8322 72.8759C27.3086 72.8987 26.7309 72.8557 26.257 72.7259C25.6471 72.5462 25.1273 72.1099 24.5148 72.0317C21.607 71.6576 18.9021 70.8916 16.1626 70.1545C14.1658 69.6207 12.1037 69.2991 10.219 68.5019C9.01095 67.9923 7.45821 67.8996 6.06203 67.5941C4.98806 67.3641 3.82955 67.2515 2.90296 66.8572C-1.39455 65.0672 -6.24855 64.1987 -10.7023 62.6855C-11.1006 62.5509 -11.58 62.5603 -12.0254 62.4767C-15.076 61.9357 -18.1172 61.41 -21.1492 60.8358C-21.6419 60.7392 -22.2679 60.4912 -22.4652 60.1943C-22.8979 59.5389 -23.6187 59.2649 -24.5127 59.0713C-26.0099 58.7509 -27.5009 58.4195 -28.9981 58.0992C-31.0916 58.9324 -32.241 57.6078 -33.7738 57.1242C-35.0065 56.7229 -36.2829 56.3991 -37.7019 56.522C-40.313 56.7533 -42.2918 56.0582 -43.8553 54.5947C-44.9718 53.5348 -46.5388 53.1442 -48.3529 53.7087C-49.0426 53.929 -49.6485 53.9037 -50.3213 53.7707C-52.1657 53.4192 -54.0227 53.0899 -55.8734 52.7495C-56.3029 52.6703 -56.739 52.5381 -57.184 52.5186C-60.2924 52.3708 -63.0862 51.5038 -65.9987 50.8471C-68.0394 50.3908 -70.1079 50.0163 -72.1765 49.6418C-73.1524 49.4642 -74.0901 49.3481 -75.0291 48.976C-76.3698 48.4428 -77.7766 47.9299 -79.483 48.0125C-80.2116 48.0432 -81.1655 47.8588 -81.6658 47.5173C-83.452 46.2868 -85.7702 46.4193 -87.9453 46.1691C-89.3849 46.0051 -90.8899 45.9894 -92.2545 45.6926C-93.6349 45.3915 -94.8782 44.7827 -96.4608 45.0014C-96.7224 45.0449 -97.1618 44.8862 -97.3268 44.726C-97.8819 44.1906 -98.6483 44.2236 -99.4497 44.2216C-100.229 44.2128 -101.028 44.1092 -101.81 44.074C-103.59 43.9959 -105.151 43.6582 -106.126 42.5092C-106.573 41.9776 -107.278 41.8359 -108.099 41.739C-108.856 41.6595 -109.602 41.4298 -110.298 41.1754C-111.442 40.7471 -111.729 40.2851 -111.44 39.4181C-111.17 38.5843 -110.831 37.7567 -110.492 36.8652C-110.051 36.7942 -109.578 36.6039 -109.196 36.6701C-107.045 37.0927 -104.681 36.7811 -102.663 37.6018C-102.575 37.6388 -102.439 37.6888 -102.347 37.6883C-100.247 37.5218 -98.4855 38.3108 -96.5657 38.5934C-94.4122 38.9145 -92.4814 39.4686 -90.4607 40.3157C-89.3981 40.2103 -88.1841 40.0952 -86.9259 39.9666C-86.3165 40.632 -85.8206 41.3047 -84.4479 41.3608C-83.4823 41.395 -82.5579 41.9549 -81.5861 41.978C-80.5605 42.0031 -79.6387 42.1148 -78.6474 42.2327C-77.1983 42.4121 -76.1578 42.8631 -75.1886 43.5375C-74.9542 43.7039 -74.6162 43.7836 -74.1103 43.9861C-73.8718 43.7573 -73.703 43.4583 -73.3914 43.3263C-73.0578 43.1875 -72.5566 43.1074 -72.1903 43.1693C-71.7766 43.2442 -71.3967 43.476 -71.0862 43.7016C-68.9609 45.2039 -66.2677 45.5704 -63.3874 45.5406C-62.0024 44.9609 -60.5486 45.4228 -58.9653 45.3321C-58.7206 45.6419 -58.4569 45.9826 -58.0693 46.4594C-57.4822 46.5179 -56.7403 46.5931 -55.7112 46.7086C-55.94 46.4031 -56.0322 46.2756 -56.1975 46.0514C-55.7401 46.0488 -55.2352 46.0591 -54.7432 46.0276C-54.1913 45.9869 -53.6398 45.8822 -53.0721 45.8458C-51.4289 45.7459 -50.5566 45.4606 -49.1135 44.5516C-47.6924 43.6494 -46.0496 43.4855 -44.4212 44.123C-43.5075 44.4754 -42.6981 44.7864 -41.6035 44.7537C-40.4174 44.7204 -39.4714 45.2095 -38.626 45.7477C-37.806 46.2662 -36.814 46.5122 -35.8093 46.1863C-34.3733 45.7101 -33.1693 46.0653 -31.9084 46.4488C-30.5842 46.8496 -29.3446 47.3679 -27.7146 47.1621C-27.0841 47.079 -26.2207 47.456 -25.6259 47.7594C-24.664 48.2528 -23.6948 48.3775 -22.4988 48.4237C-20.7127 48.4907 -18.9535 48.8317 -17.2071 49.1307C-14.5734 49.5704 -12.1081 50.3731 -9.37774 50.6091C-8.29824 50.7001 -7.28609 51.1689 -6.26836 51.4986C-4.64368 52.0456 -3.07263 52.5908 -1.1697 52.677C0.127331 52.738 1.39525 53.2385 2.6779 53.5513C4.5892 54.0105 6.4755 54.5141 8.8617 54.1318C8.29188 53.784 7.9554 53.4107 7.52918 53.3579C4.74777 53.0184 2.38136 51.8465 -0.497084 51.6466C-3.30608 51.453 -5.85735 50.5117 -8.45495 49.7495C-9.69056 49.3857 -10.9298 48.9314 -12.2401 48.7645C-15.6119 48.3401 -18.7588 47.517 -21.9123 46.641C-24.2127 45.9985 -26.6598 45.6483 -28.9976 45.0722C-31.6515 44.4097 -34.2774 43.6653 -36.8687 42.8921C-37.5576 42.6907 -38.1058 42.2722 -38.9379 41.8399C-38.3999 41.5652 -38.1077 41.3384 -37.7454 41.2458C-36.649 40.9835 -35.532 41.008 -34.4106 41.251C-32.2752 41.7333 -30.0989 42.1756 -27.9448 42.6246C-26.754 42.8739 -25.5786 43.1829 -24.3507 43.3017C-21.4939 43.5723 -18.8934 44.2969 -16.3645 45.1809C-15.1443 45.6044 -13.8749 45.8113 -12.5206 45.9647C-9.8718 46.2807 -7.23448 46.8109 -4.69453 47.4166C-1.2827 48.2228 2.1229 49.0399 5.58472 49.7575C8.81286 50.4366 11.8789 51.4676 14.9978 52.3725C16.4546 52.7969 17.8302 53.3652 19.4678 53.4044C19.6824 53.412 19.8848 53.5057 20.0998 53.5774C20.8361 53.7917 21.6319 53.9328 22.2521 54.256C22.7995 54.5465 23.1271 55.0325 23.6282 55.502C24.2577 55.2269 24.799 54.9788 25.3939 54.7325C26.8708 55.9294 28.7666 56.4484 30.9937 56.3804C31.328 56.3697 31.6969 56.3301 31.9813 56.4079C34.5944 57.1104 37.2012 57.824 39.9344 58.5722C39.9316 59.7731 39.3747 60.6306 37.6454 61.1416C36.1367 61.5852 34.7657 61.8491 33.0947 61.4812C31.5027 61.1349 29.7798 61.0851 28.1256 60.9136C27.6861 61.3046 27.9745 61.537 28.4356 61.6248C29.1936 61.7684 29.9799 61.8941 30.775 61.9072C34.0029 61.9727 36.0992 63.3647 38.0606 64.8988C38.6278 65.3481 38.4987 65.9647 37.7752 66.3419C36.7088 66.9066 35.5917 67.4317 34.5253 67.9963C34.2956 68.1125 34.1959 68.3536 33.942 68.6421C36.6436 69.3816 39.2566 70.0841 41.8351 70.8155C42.4513 70.9842 42.9767 71.2814 43.5678 71.4944C43.9441 71.6357 44.3776 71.8694 44.7402 71.8409C46.8152 71.6546 48.4663 72.4134 50.1229 73.033C52.8197 74.0397 55.5381 74.9756 58.6036 75.329C59.2381 75.4004 59.8392 75.6928 60.4553 75.8614C62.13 76.3198 63.8047 76.7783 65.4856 77.2256C66.2281 77.4289 67.0049 77.5392 67.7286 77.7757C71.6162 79.0316 75.4726 80.3429 79.3851 81.5546C80.6935 81.9511 81.7343 82.4661 82.2661 83.3659C83.0224 83.1894 83.6525 83.0423 84.4624 82.8677C84.7765 83.1838 85.1189 83.4821 85.3573 83.803C85.866 84.5176 86.6961 84.5658 87.6606 84.408L87.629 84.3993C88.2966 84.7355 89.0413 84.7731 89.8585 84.7795C90.8429 84.7805 91.9632 84.8315 92.7979 85.1622C97.2149 86.8699 101.898 88.267 105.864 90.5159C106.373 90.8088 106.877 91.1128 107.545 91.5129C107.938 91.365 108.404 91.1857 108.952 90.9905C109.662 91.5427 110.284 92.186 111.119 92.6448C111.964 93.119 113.017 93.4198 114.123 93.8506C114.929 92.4221 112.319 92.7814 112.405 91.8847C112.785 91.5028 113.222 91.763 113.601 91.8668C115.674 92.4598 117.769 93.046 119.786 93.7387C120.43 93.9536 120.951 94.4539 121.313 94.911C121.538 95.1901 121.326 95.6306 121.307 96.2135C122.354 96.5895 123.328 97.5464 125.112 97.2293C125.577 96.3723 124.085 96.3345 123.883 95.7551C124.068 95.7165 124.304 95.5893 124.425 95.635C125.61 96.0874 126.749 96.5908 127.947 97.021C128.819 97.3494 129.767 97.6089 130.855 97.9448C131.536 98.5149 131.505 99.7336 133.276 99.8604C133.583 99.5738 133.891 99.2873 134.355 98.852C136.87 99.9877 139.368 101.119 141.908 102.275C142.253 101.922 142.545 101.631 142.849 101.318C143.883 102.202 144.151 102.275 145.977 102.66C146.941 102.86 147.816 103.214 148.673 103.474C149.213 105.361 149.213 105.361 152.819 105.338C154.072 105.898 154.65 107.105 156.39 107.415C156.486 107.083 156.575 106.763 156.736 106.219C157.392 106.769 157.871 107.181 158.372 107.587C159.316 108.369 160.22 109.192 161.986 108.972C162.355 108.933 162.905 109.122 163.174 109.323C164.21 110.105 165.292 110.644 166.945 110.624C167.661 110.615 168.502 110.935 169.078 111.272C170.939 112.369 173.176 112.866 175.378 113.456C176.617 113.783 177.943 114.082 178.133 115.233C178.127 115.372 178.122 115.511 178.1 115.646C178.068 115.51 178.074 115.37 178.101 115.225ZM29.5955 67.6824C29.1527 67.4973 28.8364 67.3468 28.4951 67.2405C28.4477 67.2276 28.1559 67.5184 28.1717 67.5228C28.3965 67.6738 28.6214 67.8248 28.8932 67.9248C28.9818 67.9618 29.2019 67.8304 29.5955 67.6824ZM117.464 95.0081C117.442 94.8868 117.403 94.7612 117.387 94.6289C117.213 94.7093 116.968 94.7571 116.883 94.8746C116.817 94.9588 116.944 95.1215 116.989 95.236C117.14 95.1623 117.298 95.0775 117.464 95.0081ZM139.062 102.147C138.941 102.038 138.815 101.939 138.694 101.829C138.559 101.907 138.424 101.986 138.32 102.072C138.314 102.083 138.447 102.235 138.501 102.237C138.706 102.229 138.882 102.175 139.062 102.147ZM11.8474 61.7374C11.7463 61.7226 11.5725 61.675 11.5663 61.6861C11.5038 61.7968 11.4571 61.9119 11.4042 62.038C11.5052 62.0529 11.679 62.1004 11.6853 62.0894C11.7698 61.9719 11.8007 61.8525 11.8474 61.7374ZM23.3984 65.2829L23.53 65.1144L23.2838 65.0981L23.3984 65.2829ZM14.9692 64.8676C15.0607 64.867 15.2154 64.8838 15.272 64.8482C15.3286 64.8125 15.2933 64.7134 15.2992 64.6383C15.1478 64.648 14.9902 64.6688 14.8388 64.6785C14.8707 64.7511 14.931 64.806 14.9692 64.8676ZM114.885 96.9611C114.84 96.9106 114.793 96.8336 114.73 96.8163C114.666 96.799 114.556 96.8328 114.474 96.8487C114.519 96.8992 114.566 96.9762 114.63 96.9935C114.693 97.0108 114.787 96.9727 114.885 96.9611ZM16.9107 63.3663L17.0837 63.2859L16.9225 63.2162L16.9107 63.3663ZM5.02773 60.2797L5.19265 60.4399L5.31176 60.2936L5.02773 60.2797ZM114.037 94.8114L114.286 94.7901L114.124 94.6564L114.037 94.8114ZM153.378 108.841L153.361 108.644L153.157 108.78L153.378 108.841ZM50.9739 78.5714L51.2167 78.5612L51.0488 78.4385L50.9739 78.5714Z" fill="#D2013C"/>
<path d="M194.745 122.836C193.869 123.581 193.352 123.784 192.625 123.393C190.539 122.273 187.788 121.622 186.981 119.56C186.927 119.43 186.665 119.346 186.506 119.238C186.314 119.288 185.98 119.299 185.93 119.387C185.316 120.766 185.127 120.842 183.58 120.125C183.305 119.999 183.127 119.796 182.848 119.579C183.035 118.57 183.301 117.581 184.568 116.726C186.025 117.279 187.451 117.822 188.997 118.412C189.014 118.672 189.023 119.045 189.051 119.577C189.732 119.533 190.36 119.488 191.117 119.439C191.584 120.066 191.995 120.792 192.636 121.402C193.226 121.973 194.058 122.405 194.777 122.909L194.745 122.836Z" fill="#D2013C"/>
<path d="M194.777 122.909C195.005 121.987 195.803 121.413 197.147 120.809C197.48 121.642 197.72 122.283 197.976 122.928C198.979 123.381 200.742 122.777 200.844 124.084C200.384 124.124 199.781 124.189 198.946 124.28C200.206 125.021 202.467 125.96 203.069 125.958C203.375 125.966 203.668 125.803 203.98 125.735C205.039 125.539 205.706 125.811 205.921 126.496C206.04 126.9 205.538 127.337 204.988 127.276C204.439 127.216 203.88 127.139 203.368 127.012C202.629 126.835 201.918 126.577 201.191 126.378C197.69 125.47 197.279 125.166 196.251 122.558C195.75 122.638 195.249 122.718 194.742 122.81C194.745 122.836 194.777 122.909 194.777 122.909Z" fill="#D2013C"/>
<path d="M209.168 128.369C207.936 128.096 207.936 128.096 208.009 127.029C208.221 127.011 208.485 126.93 208.599 126.986C209.276 127.338 209.405 127.821 209.168 128.369Z" fill="#D2013C"/>
<path d="M193.55 120.655C193.616 120.699 193.73 120.756 193.727 120.793C193.718 120.842 193.605 120.913 193.545 120.922C193.475 120.916 193.428 120.839 193.361 120.795C193.408 120.744 193.471 120.698 193.55 120.655Z" fill="#D2013C"/>
</g>
<defs>
<clipPath id="clip0_2_2">
<rect width="260" height="60" fill="white"/>
</clipPath>
</defs>
</svg>
